<?xml version="1.0" encoding="UTF-8" standalone="no"?><!DOCTYPE svg PUBLIC "-//W3C//DTD SVG 1.1//EN" "http://www.w3.org/Graphics/SVG/1.1/DTD/svg11.dtd"><svg width="100%" height="100%" viewBox="0 0 800 688" version="1.1" xmlns="http://www.w3.org/2000/svg" xmlns:xlink="http://www.w3.org/1999/xlink" xml:space="preserve" xmlns:serif="http://www.serif.com/" style="fill-rule:evenodd;clip-rule:evenodd;stroke-linejoin:round;stroke-miterlimit:1.41421;"><g><path d="M239.637,414.438l320.695,0c15.35,0 27.679,12.311 27.679,27.614l0,16.538c0,15.288 -12.329,27.617 -27.679,27.617l-320.695,0c-15.306,0 -27.648,-12.329 -27.648,-27.617l0,-16.538c0,-15.303 12.342,-27.614 27.648,-27.614Z" style="fill:#555;fill-rule:nonzero;stroke:#555;stroke-width:3.1px;"/><path d="M239.637,308.117l320.695,0c15.35,0 27.679,12.323 27.679,27.614l0,16.538c0,15.334 -12.329,27.645 -27.679,27.645l-320.695,0c-15.306,0 -27.648,-12.311 -27.648,-27.645l0,-16.538c0,-15.291 12.342,-27.614 27.648,-27.614Z" style="fill:#555;fill-rule:nonzero;stroke:#555;stroke-width:3.1px;"/><path d="M239.637,201.793l320.695,0c15.35,0 27.679,12.323 27.679,27.614l0,16.585c0,15.29 -12.329,27.614 -27.679,27.614l-320.695,0c-15.306,0 -27.648,-12.324 -27.648,-27.614l0,-16.585c0,-15.291 12.342,-27.614 27.648,-27.614Z" style="fill:#555;fill-rule:nonzero;stroke:#555;stroke-width:3.1px;"/><path d="M800,688l-800,0l0,-688l800,0l0,688Zm-778.28,-662.451l0,636.902l756.56,0l0,-636.902l-756.56,0Z" style="fill:#555;"/></g></svg>